if (_typeface_js && _typeface_js.loadFace) _typeface_js.loadFace({"glyphs":{"0":{"ha":1157,"x_min":165,"x_max":827,"o":"m 661 661 l 331 661 l 331 827 l 661 827 l 661 661 m 331 165 l 165 165 l 165 661 l 331 661 l 331 165 m 661 0 l 331 0 l 331 165 l 661 165 l 661 0 m 331 0 m 827 165 l 661 165 l 661 661 l 827 661 l 827 165 z "},"1":{"ha":992,"x_min":165,"x_max":661,"o":"m 331 661 l 165 661 l 165 827 l 496 827 l 496 165 l 661 165 l 661 0 l 165 0 l 165 165 l 331 165 l 331 661 z "},"2":{"ha":1157,"x_min":165,"x_max":827,"o":"m 165 0 l 165 331 l 331 331 l 331 165 l 827 165 l 827 0 l 165 0 m 661 661 l 827 661 l 827 496 l 661 496 l 661 661 m 661 661 l 165 661 l 165 827 l 661 827 l 661 661 m 331 496 l 661 496 l 661 331 l 331 331 l 331 496 z "},"3":{"ha":1157,"x_min":165,"x_max":827,"o":"m 661 661 l 827 661 l 827 496 l 661 496 l 661 661 m 661 661 l 165 661 l 165 827 l 661 827 l 661 661 m 331 496 l 661 496 l 661 331 l 331 331 l 331 496 m 661 331 l 827 331 l 827 165 l 661 165 l 661 331 m 661 0 l 165 0 l 165 165 l 661 165 l 661 0 z "},"4":{"ha":1157,"x_min":165,"x_max":827,"o":"m 165 827 l 165 165 l 496 165 l 496 0 l 661 0 l 661 165 l 827 165 l 827 331 l 661 331 l 661 827 l 496 827 l 496 331 l 331 331 l 331 827 l 165 827 z "},"5":{"ha":1157,"x_min":165,"x_max":827,"o":"m 165 827 l 165 331 l 661 331 l 661 496 l 331 496 l 331 661 l 827 661 l 827 827 l 165 827 m 661 331 l 827 331 l 827 165 l 661 165 l 661 331 m 661 0 l 165 0 l 165 165 l 661 165 l 661 0 z "},"6":{"ha":1157,"x_min":165,"x_max":827,"o":"m 331 827 l 661 827 l 661 661 l 331 661 l 331 827 m 661 331 l 827 331 l 827 165 l 661 165 l 661 331 m 331 165 l 661 165 l 661 0 l 331 0 l 331 165 m 165 661 l 165 165 l 331 165 l 331 331 l 661 331 l 661 496 l 331 496 l 331 661 l 165 661 z "},"7":{"ha":1157,"x_min":165,"x_max":827,"o":"m 827 827 l 827 496 l 661 496 l 661 661 l 165 661 l 165 827 l 827 827 m 496 496 l 661 496 l 661 331 l 496 331 l 496 496 m 496 0 l 331 0 l 331 331 l 496 331 l 496 0 z "},"8":{"ha":1157,"x_min":165,"x_max":827,"o":"m 661 661 l 827 661 l 827 496 l 661 496 l 661 661 m 661 661 l 331 661 l 331 827 l 661 827 l 661 661 m 331 496 l 661 496 l 661 331 l 331 331 l 331 496 m 661 331 l 827 331 l 827 165 l 661 165 l 661 331 m 661 0 l 331 0 l 331 165 l 661 165 l 661 0 m 165 661 l 331 661 l 331 496 l 165 496 l 165 661 m 165 331 l 331 331 l 331 165 l 165 165 l 165 331 z "},"9":{"ha":1157,"x_min":165,"x_max":827,"o":"m 661 0 l 331 0 l 331 165 l 661 165 l 661 0 m 331 496 l 165 496 l 165 661 l 331 661 l 331 496 m 661 661 l 331 661 l 331 827 l 661 827 l 661 661 m 827 165 l 827 661 l 661 661 l 661 496 l 331 496 l 331 331 l 661 331 l 661 165 l 827 165 z "}," ":{"ha":827,"x_min":0,"x_max":0,"o":""},"!":{"ha":661,"x_min":165,"x_max":331,"o":"m 165 331 l 165 827 l 331 827 l 331 331 l 165 331 m 165 165 l 331 165 l 331 0 l 165 0 l 165 165 z "},"\"":{"ha":992,"x_min":165,"x_max":661,"o":"m 331 496 l 165 496 l 165 827 l 331 827 l 331 496 m 661 496 l 496 496 l 496 827 l 661 827 l 661 496 z "},"#":{"ha":1323,"x_min":165,"x_max":992,"o":"m 165 661 l 331 661 l 331 496 l 165 496 l 165 661 m 331 0 l 331 827 l 496 827 l 496 0 l 331 0 m 661 0 l 661 827 l 827 827 l 827 0 l 661 0 m 496 661 l 661 661 l 661 496 l 496 496 l 496 661 m 827 661 l 992 661 l 992 496 l 827 496 l 827 661 m 165 331 l 331 331 l 331 165 l 165 165 l 165 331 m 496 331 l 661 331 l 661 165 l 496 165 l 496 331 m 827 331 l 992 331 l 992 165 l 827 165 l 827 331 z "},"$":{"ha":1157,"x_min":165,"x_max":827,"o":"m 827 661 l 331 661 l 331 827 l 827 827 l 827 661 m 661 331 l 331 331 l 331 496 l 661 496 l 661 331 m 331 496 l 165 496 l 165 661 l 331 661 l 331 496 m 827 0 l 165 0 l 165 165 l 661 165 l 661 331 l 827 331 l 827 0 m 496 -165 l 331 -165 l 331 0 l 496 0 l 496 -165 m 661 827 l 496 827 l 496 992 l 661 992 l 661 827 z "},"%":{"ha":1323,"x_min":165,"x_max":992,"o":"m 331 0 l 331 331 l 496 331 l 496 0 l 331 0 m 496 331 l 496 496 l 661 496 l 661 331 l 496 331 m 661 496 l 661 827 l 827 827 l 827 496 l 661 496 m 165 496 l 165 827 l 496 827 l 496 496 l 165 496 m 661 0 l 661 331 l 992 331 l 992 0 l 661 0 z "},"&":{"ha":1157,"x_min":165,"x_max":827,"o":"m 827 661 l 331 661 l 331 827 l 827 827 l 827 661 m 661 331 l 331 331 l 331 496 l 661 496 l 661 331 m 331 496 l 165 496 l 165 661 l 331 661 l 331 496 m 827 0 l 331 0 l 331 165 l 827 165 l 827 0 m 331 165 l 165 165 l 165 331 l 331 331 l 331 165 m 661 -165 l 496 -165 l 496 0 l 661 0 l 661 -165 m 661 827 l 496 827 l 496 992 l 661 992 l 661 827 z "},"'":{"ha":661,"x_min":165,"x_max":331,"o":"m 331 496 l 165 496 l 165 827 l 331 827 l 331 496 z "},"(":{"ha":827,"x_min":165,"x_max":496,"o":"m 496 661 l 331 661 l 331 827 l 496 827 l 496 661 m 331 165 l 165 165 l 165 661 l 331 661 l 331 165 m 496 0 l 331 0 l 331 165 l 496 165 l 496 0 m 331 0 z "},")":{"ha":827,"x_min":165,"x_max":496,"o":"m 331 661 l 165 661 l 165 827 l 331 827 l 331 661 m 496 165 l 331 165 l 331 661 l 496 661 l 496 165 m 331 0 l 165 0 l 165 165 l 331 165 l 331 0 m 331 0 z "},"*":{"ha":1323,"x_min":165,"x_max":992,"o":"m 661 496 l 827 496 l 827 331 l 661 331 l 661 496 m 827 661 l 992 661 l 992 496 l 827 496 l 827 661 m 827 331 l 992 331 l 992 165 l 827 165 l 827 331 m 165 331 l 331 331 l 331 165 l 165 165 l 165 331 m 331 496 l 496 496 l 496 331 l 331 331 l 331 496 m 165 661 l 331 661 l 331 496 l 165 496 l 165 661 m 496 0 l 496 827 l 661 827 l 661 0 l 496 0 z "},"+":{"ha":1323,"x_min":165,"x_max":992,"o":"m 165 331 l 496 331 l 496 0 l 661 0 l 661 331 l 992 331 l 992 496 l 661 496 l 661 827 l 496 827 l 496 496 l 165 496 l 165 331 z "},",":{"ha":661,"x_min":0,"x_max":331,"o":"m 165 165 l 331 165 l 331 0 l 165 0 l 165 165 m 0 0 l 165 0 l 165 -165 l 0 -165 l 0 0 z "},"-":{"ha":992,"x_min":165,"x_max":661,"o":"m 661 331 l 165 331 l 165 496 l 661 496 l 661 331 z "},".":{"ha":496,"x_min":0,"x_max":165,"o":"m 0 165 l 165 165 l 165 0 l 0 0 l 0 165 z "},"/":{"ha":992,"x_min":165,"x_max":661,"o":"m 661 496 l 496 496 l 496 827 l 661 827 l 661 496 m 496 331 l 331 331 l 331 496 l 496 496 l 496 331 m 331 0 l 165 0 l 165 331 l 331 331 l 331 0 z "},":":{"ha":496,"x_min":0,"x_max":165,"o":"m 0 331 l 165 331 l 165 165 l 0 165 l 0 331 m 0 661 l 165 661 l 165 496 l 0 496 l 0 661 z "},";":{"ha":661,"x_min":0,"x_max":331,"o":"m 165 331 l 331 331 l 331 165 l 165 165 l 165 331 m 165 661 l 331 661 l 331 496 l 165 496 l 165 661 m 0 165 l 165 165 l 165 0 l 0 0 l 0 165 z "},"<":{"ha":992,"x_min":165,"x_max":661,"o":"m 496 165 l 661 165 l 661 0 l 496 0 l 496 165 m 331 331 l 496 331 l 496 165 l 331 165 l 331 331 m 165 496 l 331 496 l 331 331 l 165 331 l 165 496 m 331 661 l 496 661 l 496 496 l 331 496 l 331 661 m 496 827 l 661 827 l 661 661 l 496 661 l 496 827 z "},"=":{"ha":992,"x_min":165,"x_max":661,"o":"m 661 165 l 165 165 l 165 331 l 661 331 l 661 165 m 661 496 l 165 496 l 165 661 l 661 661 l 661 496 z "},">":{"ha":992,"x_min":165,"x_max":661,"o":"m 165 165 l 331 165 l 331 0 l 165 0 l 165 165 m 331 331 l 496 331 l 496 165 l 331 165 l 331 331 m 496 496 l 661 496 l 661 331 l 496 331 l 496 496 m 331 661 l 496 661 l 496 496 l 331 496 l 331 661 m 165 827 l 331 827 l 331 661 l 165 661 l 165 827 z "},"?":{"ha":1157,"x_min":165,"x_max":827,"o":"m 661 661 l 827 661 l 827 496 l 661 496 l 661 661 m 661 661 l 165 661 l 165 827 l 661 827 l 661 661 m 331 496 l 661 496 l 661 331 l 331 331 l 331 496 m 331 165 l 496 165 l 496 0 l 331 0 l 331 165 z "},"@":{"ha":1323,"x_min":165,"x_max":992,"o":"m 331 165 l 165 165 l 165 661 l 331 661 l 331 165 m 827 0 l 331 0 l 331 165 l 827 165 l 827 0 m 331 0 m 331 827 l 331 661 l 496 661 l 496 331 l 827 331 l 827 496 l 661 496 l 661 661 l 827 661 l 827 827 l 331 827 m 827 661 l 992 661 l 992 496 l 827 496 l 827 661 z "},"A":{"ha":1157,"x_min":169,"x_max":831,"o":"m 169 0 l 169 661 l 335 661 l 335 496 l 665 496 l 665 661 l 831 661 l 831 0 l 665 0 l 665 331 l 335 331 l 335 0 l 169 0 m 335 827 l 335 661 l 665 661 l 665 827 l 335 827 z "},"B":{"ha":1157,"x_min":165,"x_max":827,"o":"m 827 661 l 827 496 l 661 496 l 661 661 l 827 661 m 827 331 l 827 165 l 661 165 l 661 331 l 827 331 m 661 661 l 331 661 l 331 496 l 661 496 l 661 331 l 331 331 l 331 165 l 661 165 l 661 0 l 165 0 l 165 827 l 661 827 l 661 661 z "},"C":{"ha":1157,"x_min":165,"x_max":827,"o":"m 827 496 l 661 496 l 661 661 l 827 661 l 827 496 m 661 661 l 331 661 l 331 827 l 661 827 l 661 661 m 827 165 l 661 165 l 661 331 l 827 331 l 827 165 m 331 165 l 165 165 l 165 661 l 331 661 l 331 165 m 661 0 l 331 0 l 331 165 l 661 165 l 661 0 m 331 0 m 661 331 z "},"D":{"ha":1157,"x_min":165,"x_max":827,"o":"m 165 0 l 165 827 l 661 827 l 661 661 l 331 661 l 331 165 l 661 165 l 661 0 l 165 0 m 827 661 l 827 165 l 661 165 l 661 661 l 827 661 z "},"E":{"ha":992,"x_min":165,"x_max":661,"o":"m 661 661 l 331 661 l 331 496 l 661 496 l 661 331 l 331 331 l 331 165 l 661 165 l 661 0 l 165 0 l 165 827 l 661 827 l 661 661 z "},"F":{"ha":992,"x_min":165,"x_max":661,"o":"m 165 0 l 165 827 l 661 827 l 661 661 l 331 661 l 331 496 l 661 496 l 661 331 l 331 331 l 331 0 l 165 0 z "},"G":{"ha":1157,"x_min":165,"x_max":827,"o":"m 827 661 l 331 661 l 331 827 l 827 827 l 827 661 m 331 165 l 165 165 l 165 661 l 331 661 l 331 165 m 661 0 l 331 0 l 331 165 l 661 165 l 661 0 m 331 0 m 661 331 l 496 331 l 496 496 l 827 496 l 827 165 l 661 165 l 661 331 z "},"H":{"ha":1157,"x_min":165,"x_max":827,"o":"m 165 0 l 165 827 l 331 827 l 331 496 l 661 496 l 661 827 l 827 827 l 827 0 l 661 0 l 661 331 l 331 331 l 331 0 l 165 0 z "},"I":{"ha":661,"x_min":165,"x_max":331,"o":"m 165 0 l 165 827 l 331 827 l 331 0 l 165 0 z "},"J":{"ha":1157,"x_min":165,"x_max":827,"o":"m 661 827 l 827 827 l 827 165 l 661 165 l 661 827 m 661 0 l 331 0 l 331 165 l 661 165 l 661 0 m 165 331 l 331 331 l 331 165 l 165 165 l 165 331 z "},"K":{"ha":1157,"x_min":165,"x_max":827,"o":"m 331 331 l 331 0 l 165 0 l 165 827 l 331 827 l 331 496 l 496 496 l 496 331 l 331 331 m 496 661 l 661 661 l 661 496 l 496 496 l 496 661 m 661 827 l 827 827 l 827 661 l 661 661 l 661 827 m 496 331 l 661 331 l 661 165 l 496 165 l 496 331 m 661 165 l 827 165 l 827 0 l 661 0 l 661 165 z "},"L":{"ha":992,"x_min":165,"x_max":661,"o":"m 331 165 l 661 165 l 661 0 l 165 0 l 165 827 l 331 827 l 331 165 z "},"M":{"ha":1323,"x_min":165,"x_max":992,"o":"m 165 0 l 165 827 l 331 827 l 331 0 l 165 0 m 827 0 l 827 827 l 992 827 l 992 0 l 827 0 m 661 661 l 827 661 l 827 496 l 661 496 l 661 661 m 496 496 l 661 496 l 661 331 l 496 331 l 496 496 m 331 661 l 496 661 l 496 496 l 331 496 l 331 661 z "},"N":{"ha":1323,"x_min":165,"x_max":992,"o":"m 165 0 l 165 827 l 331 827 l 331 0 l 165 0 m 827 0 l 827 827 l 992 827 l 992 0 l 827 0 m 661 331 l 827 331 l 827 165 l 661 165 l 661 331 m 496 496 l 661 496 l 661 331 l 496 331 l 496 496 m 331 661 l 496 661 l 496 496 l 331 496 l 331 661 z "},"O":{"ha":1157,"x_min":165,"x_max":827,"o":"m 661 661 l 331 661 l 331 827 l 661 827 l 661 661 m 331 165 l 165 165 l 165 661 l 331 661 l 331 165 m 661 0 l 331 0 l 331 165 l 661 165 l 661 0 m 331 0 m 827 165 l 661 165 l 661 661 l 827 661 l 827 165 z "},"P":{"ha":1157,"x_min":165,"x_max":827,"o":"m 165 0 l 165 827 l 661 827 l 661 661 l 331 661 l 331 496 l 661 496 l 661 331 l 331 331 l 331 0 l 165 0 m 661 661 l 827 661 l 827 496 l 661 496 l 661 661 z "},"Q":{"ha":1157,"x_min":165,"x_max":827,"o":"m 661 661 l 331 661 l 331 827 l 661 827 l 661 661 m 331 165 l 165 165 l 165 661 l 331 661 l 331 165 m 661 0 l 331 0 l 331 165 l 661 165 l 661 0 m 331 0 m 827 165 l 661 165 l 661 661 l 827 661 l 827 165 m 661 0 l 827 0 l 827 -165 l 661 -165 l 661 0 z "},"R":{"ha":1157,"x_min":165,"x_max":827,"o":"m 165 0 l 165 827 l 661 827 l 661 661 l 331 661 l 331 496 l 661 496 l 661 331 l 331 331 l 331 0 l 165 0 m 661 661 l 827 661 l 827 496 l 661 496 l 661 661 m 496 331 l 661 331 l 661 165 l 496 165 l 496 331 m 661 165 l 827 165 l 827 0 l 661 0 l 661 165 z "},"S":{"ha":1157,"x_min":165,"x_max":827,"o":"m 165 0 l 165 165 l 661 165 l 661 0 l 165 0 m 331 661 l 331 827 l 827 827 l 827 661 l 331 661 m 331 331 l 661 331 l 661 496 l 331 496 l 331 331 m 661 331 l 827 331 l 827 165 l 661 165 l 661 331 m 165 661 l 331 661 l 331 496 l 165 496 l 165 661 z "},"T":{"ha":992,"x_min":165,"x_max":661,"o":"m 331 0 l 331 661 l 165 661 l 165 827 l 661 827 l 661 661 l 496 661 l 496 0 l 331 0 z "},"U":{"ha":1157,"x_min":165,"x_max":827,"o":"m 661 827 l 827 827 l 827 165 l 661 165 l 661 827 m 661 0 l 331 0 l 331 165 l 661 165 l 661 0 m 165 827 l 331 827 l 331 165 l 165 165 l 165 827 z "},"V":{"ha":1323,"x_min":165,"x_max":992,"o":"m 165 496 l 165 827 l 331 827 l 331 496 l 165 496 m 496 165 l 661 165 l 661 0 l 496 0 l 496 165 m 331 165 l 331 496 l 496 496 l 496 165 l 331 165 m 661 165 l 661 496 l 827 496 l 827 165 l 661 165 m 827 496 l 827 827 l 992 827 l 992 496 l 827 496 z "},"W":{"ha":1323,"x_min":165,"x_max":992,"o":"m 165 165 l 165 827 l 331 827 l 331 165 l 165 165 m 661 165 l 827 165 l 827 0 l 661 0 l 661 165 m 331 165 l 496 165 l 496 0 l 331 0 l 331 165 m 827 165 l 827 827 l 992 827 l 992 165 l 827 165 m 496 165 l 496 661 l 661 661 l 661 165 l 496 165 z "},"X":{"ha":1323,"x_min":165,"x_max":992,"o":"m 165 165 l 331 165 l 331 0 l 165 0 l 165 165 m 331 331 l 496 331 l 496 165 l 331 165 l 331 331 m 496 496 l 661 496 l 661 331 l 496 331 l 496 496 m 661 661 l 827 661 l 827 496 l 661 496 l 661 661 m 827 827 l 992 827 l 992 661 l 827 661 l 827 827 m 331 661 l 496 661 l 496 496 l 331 496 l 331 661 m 165 827 l 331 827 l 331 661 l 165 661 l 165 827 m 661 331 l 827 331 l 827 165 l 661 165 l 661 331 m 827 165 l 992 165 l 992 0 l 827 0 l 827 165 z "},"Y":{"ha":1323,"x_min":165,"x_max":992,"o":"m 661 661 l 827 661 l 827 496 l 661 496 l 661 661 m 331 661 l 496 661 l 496 496 l 331 496 l 331 661 m 496 0 l 496 496 l 661 496 l 661 0 l 496 0 m 165 827 l 331 827 l 331 661 l 165 661 l 165 827 m 827 827 l 992 827 l 992 661 l 827 661 l 827 827 z "},"Z":{"ha":992,"x_min":165,"x_max":661,"o":"m 165 0 l 165 331 l 331 331 l 331 165 l 661 165 l 661 0 l 165 0 m 661 827 l 661 496 l 496 496 l 496 661 l 165 661 l 165 827 l 661 827 m 331 496 l 496 496 l 496 331 l 331 331 l 331 496 z "},"[":{"ha":827,"x_min":165,"x_max":496,"o":"m 165 0 l 165 827 l 496 827 l 496 661 l 331 661 l 331 165 l 496 165 l 496 0 l 165 0 z "},"\\":{"ha":992,"x_min":165,"x_max":661,"o":"m 331 496 l 165 496 l 165 827 l 331 827 l 331 496 m 496 331 l 331 331 l 331 496 l 496 496 l 496 331 m 661 0 l 496 0 l 496 331 l 661 331 l 661 0 z "},"]":{"ha":827,"x_min":165,"x_max":496,"o":"m 496 0 l 165 0 l 165 165 l 331 165 l 331 661 l 165 661 l 165 827 l 496 827 l 496 0 z "},"^":{"ha":992,"x_min":165,"x_max":661,"o":"m 165 661 l 331 661 l 331 496 l 165 496 l 165 661 m 331 827 l 496 827 l 496 661 l 331 661 l 331 827 m 496 661 l 661 661 l 661 496 l 496 496 l 496 661 z "},"_":{"ha":1157,"x_min":165,"x_max":827,"o":"m 827 -165 l 165 -165 l 165 0 l 827 0 l 827 -165 z "},"`":{"ha":827,"x_min":165,"x_max":496,"o":"m 331 661 l 165 661 l 165 827 l 331 827 l 331 661 m 496 496 l 331 496 l 331 661 l 496 661 l 496 496 m 331 0 z "},"a":{"ha":1157,"x_min":169,"x_max":831,"o":"m 169 0 l 169 661 l 335 661 l 335 496 l 665 496 l 665 661 l 831 661 l 831 0 l 665 0 l 665 331 l 335 331 l 335 0 l 169 0 m 335 827 l 335 661 l 665 661 l 665 827 l 335 827 z "},"b":{"ha":1157,"x_min":165,"x_max":827,"o":"m 827 661 l 827 496 l 661 496 l 661 661 l 827 661 m 827 331 l 827 165 l 661 165 l 661 331 l 827 331 m 661 661 l 331 661 l 331 496 l 661 496 l 661 331 l 331 331 l 331 165 l 661 165 l 661 0 l 165 0 l 165 827 l 661 827 l 661 661 z "},"c":{"ha":1157,"x_min":165,"x_max":827,"o":"m 827 496 l 661 496 l 661 661 l 827 661 l 827 496 m 661 661 l 331 661 l 331 827 l 661 827 l 661 661 m 827 165 l 661 165 l 661 331 l 827 331 l 827 165 m 331 165 l 165 165 l 165 661 l 331 661 l 331 165 m 661 0 l 331 0 l 331 165 l 661 165 l 661 0 m 331 0 m 661 331 z "},"d":{"ha":1157,"x_min":165,"x_max":827,"o":"m 165 0 l 165 827 l 661 827 l 661 661 l 331 661 l 331 165 l 661 165 l 661 0 l 165 0 m 827 661 l 827 165 l 661 165 l 661 661 l 827 661 z "},"e":{"ha":992,"x_min":165,"x_max":661,"o":"m 661 661 l 331 661 l 331 496 l 661 496 l 661 331 l 331 331 l 331 165 l 661 165 l 661 0 l 165 0 l 165 827 l 661 827 l 661 661 z "},"f":{"ha":992,"x_min":165,"x_max":661,"o":"m 165 0 l 165 827 l 661 827 l 661 661 l 331 661 l 331 496 l 661 496 l 661 331 l 331 331 l 331 0 l 165 0 z "},"g":{"ha":1157,"x_min":165,"x_max":827,"o":"m 827 661 l 331 661 l 331 827 l 827 827 l 827 661 m 331 165 l 165 165 l 165 661 l 331 661 l 331 165 m 661 0 l 331 0 l 331 165 l 661 165 l 661 0 m 331 0 m 661 331 l 496 331 l 496 496 l 827 496 l 827 165 l 661 165 l 661 331 z "},"h":{"ha":1157,"x_min":165,"x_max":827,"o":"m 165 0 l 165 827 l 331 827 l 331 496 l 661 496 l 661 827 l 827 827 l 827 0 l 661 0 l 661 331 l 331 331 l 331 0 l 165 0 z "},"i":{"ha":661,"x_min":165,"x_max":331,"o":"m 165 0 l 165 827 l 331 827 l 331 0 l 165 0 z "},"j":{"ha":1157,"x_min":165,"x_max":827,"o":"m 661 827 l 827 827 l 827 165 l 661 165 l 661 827 m 661 0 l 331 0 l 331 165 l 661 165 l 661 0 m 165 331 l 331 331 l 331 165 l 165 165 l 165 331 z "},"k":{"ha":1157,"x_min":165,"x_max":827,"o":"m 331 331 l 331 0 l 165 0 l 165 827 l 331 827 l 331 496 l 496 496 l 496 331 l 331 331 m 496 661 l 661 661 l 661 496 l 496 496 l 496 661 m 661 827 l 827 827 l 827 661 l 661 661 l 661 827 m 496 331 l 661 331 l 661 165 l 496 165 l 496 331 m 661 165 l 827 165 l 827 0 l 661 0 l 661 165 z "},"l":{"ha":992,"x_min":165,"x_max":661,"o":"m 331 165 l 661 165 l 661 0 l 165 0 l 165 827 l 331 827 l 331 165 z "},"m":{"ha":1323,"x_min":165,"x_max":992,"o":"m 165 0 l 165 827 l 331 827 l 331 0 l 165 0 m 827 0 l 827 827 l 992 827 l 992 0 l 827 0 m 661 661 l 827 661 l 827 496 l 661 496 l 661 661 m 496 496 l 661 496 l 661 331 l 496 331 l 496 496 m 331 661 l 496 661 l 496 496 l 331 496 l 331 661 z "},"n":{"ha":1323,"x_min":165,"x_max":992,"o":"m 165 0 l 165 827 l 331 827 l 331 0 l 165 0 m 827 0 l 827 827 l 992 827 l 992 0 l 827 0 m 661 331 l 827 331 l 827 165 l 661 165 l 661 331 m 496 496 l 661 496 l 661 331 l 496 331 l 496 496 m 331 661 l 496 661 l 496 496 l 331 496 l 331 661 z "},"o":{"ha":1157,"x_min":165,"x_max":827,"o":"m 661 661 l 331 661 l 331 827 l 661 827 l 661 661 m 331 165 l 165 165 l 165 661 l 331 661 l 331 165 m 661 0 l 331 0 l 331 165 l 661 165 l 661 0 m 331 0 m 827 165 l 661 165 l 661 661 l 827 661 l 827 165 z "},"p":{"ha":1157,"x_min":165,"x_max":827,"o":"m 165 0 l 165 827 l 661 827 l 661 661 l 331 661 l 331 496 l 661 496 l 661 331 l 331 331 l 331 0 l 165 0 m 661 661 l 827 661 l 827 496 l 661 496 l 661 661 z "},"q":{"ha":1157,"x_min":165,"x_max":827,"o":"m 661 661 l 331 661 l 331 827 l 661 827 l 661 661 m 331 165 l 165 165 l 165 661 l 331 661 l 331 165 m 661 0 l 331 0 l 331 165 l 661 165 l 661 0 m 331 0 m 827 165 l 661 165 l 661 661 l 827 661 l 827 165 m 661 0 l 827 0 l 827 -165 l 661 -165 l 661 0 z "},"r":{"ha":1157,"x_min":165,"x_max":827,"o":"m 165 0 l 165 827 l 661 827 l 661 661 l 331 661 l 331 496 l 661 496 l 661 331 l 331 331 l 331 0 l 165 0 m 661 661 l 827 661 l 827 496 l 661 496 l 661 661 m 496 331 l 661 331 l 661 165 l 496 165 l 496 331 m 661 165 l 827 165 l 827 0 l 661 0 l 661 165 z "},"s":{"ha":1157,"x_min":165,"x_max":827,"o":"m 165 0 l 165 165 l 661 165 l 661 0 l 165 0 m 331 661 l 331 827 l 827 827 l 827 661 l 331 661 m 331 331 l 661 331 l 661 496 l 331 496 l 331 331 m 661 331 l 827 331 l 827 165 l 661 165 l 661 331 m 165 661 l 331 661 l 331 496 l 165 496 l 165 661 z "},"t":{"ha":992,"x_min":165,"x_max":661,"o":"m 331 0 l 331 661 l 165 661 l 165 827 l 661 827 l 661 661 l 496 661 l 496 0 l 331 0 z "},"u":{"ha":1157,"x_min":165,"x_max":827,"o":"m 661 827 l 827 827 l 827 165 l 661 165 l 661 827 m 661 0 l 331 0 l 331 165 l 661 165 l 661 0 m 165 827 l 331 827 l 331 165 l 165 165 l 165 827 z "},"v":{"ha":1323,"x_min":165,"x_max":992,"o":"m 165 496 l 165 827 l 331 827 l 331 496 l 165 496 m 496 165 l 661 165 l 661 0 l 496 0 l 496 165 m 331 165 l 331 496 l 496 496 l 496 165 l 331 165 m 661 165 l 661 496 l 827 496 l 827 165 l 661 165 m 827 496 l 827 827 l 992 827 l 992 496 l 827 496 z "},"w":{"ha":1323,"x_min":165,"x_max":992,"o":"m 165 165 l 165 827 l 331 827 l 331 165 l 165 165 m 661 165 l 827 165 l 827 0 l 661 0 l 661 165 m 331 165 l 496 165 l 496 0 l 331 0 l 331 165 m 827 165 l 827 827 l 992 827 l 992 165 l 827 165 m 496 165 l 496 661 l 661 661 l 661 165 l 496 165 z "},"x":{"ha":1323,"x_min":165,"x_max":992,"o":"m 165 165 l 331 165 l 331 0 l 165 0 l 165 165 m 331 331 l 496 331 l 496 165 l 331 165 l 331 331 m 496 496 l 661 496 l 661 331 l 496 331 l 496 496 m 661 661 l 827 661 l 827 496 l 661 496 l 661 661 m 827 827 l 992 827 l 992 661 l 827 661 l 827 827 m 331 661 l 496 661 l 496 496 l 331 496 l 331 661 m 165 827 l 331 827 l 331 661 l 165 661 l 165 827 m 661 331 l 827 331 l 827 165 l 661 165 l 661 331 m 827 165 l 992 165 l 992 0 l 827 0 l 827 165 z "},"y":{"ha":1323,"x_min":165,"x_max":992,"o":"m 661 661 l 827 661 l 827 496 l 661 496 l 661 661 m 331 661 l 496 661 l 496 496 l 331 496 l 331 661 m 496 0 l 496 496 l 661 496 l 661 0 l 496 0 m 165 827 l 331 827 l 331 661 l 165 661 l 165 827 m 827 827 l 992 827 l 992 661 l 827 661 l 827 827 z "},"z":{"ha":992,"x_min":165,"x_max":661,"o":"m 165 0 l 165 331 l 331 331 l 331 165 l 661 165 l 661 0 l 165 0 m 661 827 l 661 496 l 496 496 l 496 661 l 165 661 l 165 827 l 661 827 m 331 496 l 496 496 l 496 331 l 331 331 l 331 496 z "},"{":{"ha":992,"x_min":165,"x_max":661,"o":"m 661 661 l 496 661 l 496 496 l 331 496 l 331 827 l 661 827 l 661 661 m 661 0 l 331 0 l 331 331 l 496 331 l 496 165 l 661 165 l 661 0 m 331 331 l 165 331 l 165 496 l 331 496 l 331 331 z "},"|":{"ha":661,"x_min":165,"x_max":331,"o":"m 165 -165 l 165 992 l 331 992 l 331 -165 l 165 -165 z "},"}":{"ha":992,"x_min":165,"x_max":661,"o":"m 496 496 l 331 496 l 331 661 l 165 661 l 165 827 l 496 827 l 496 496 m 661 331 l 496 331 l 496 496 l 661 496 l 661 331 m 496 0 l 165 0 l 165 165 l 331 165 l 331 331 l 496 331 l 496 0 z "},"~":{"ha":1157,"x_min":165,"x_max":827,"o":"m 827 661 l 661 661 l 661 827 l 827 827 l 827 661 m 496 661 l 331 661 l 331 827 l 496 827 l 496 661 m 661 496 l 496 496 l 496 661 l 661 661 l 661 496 m 331 496 l 165 496 l 165 661 l 331 661 l 331 496 z "}}}
